PathFileType	4	(X/Y/Z)	/Users/itak/Documents/Research/Walk-IL/dataset/trc/00087_00006.trc
DataRate	CameraRate	NumFrames	NumMarkers	Units	OrigDataRate	OrigDataStartFrame	OrigNumFrames
100.000000	100.000000	4	53	mm	100.000000	125	500
Frame#	Time	LPSI			L3			STRN			T10			C7			CLAV			RBAK			LBAK			LSHO			LUPA			LAEL			LAOL			LWTS			LWPS			LFRA			LIFD			LHPS			LHTS			RSHO			RUPA			RAEL			RAOL			RWTS			RWPS			RFRA			RIFD			RHTS			RHPS			RBHD			LFHD			RFHD			LBHD			LHIP			RHIP			RASI			LASI			LKNE			LTHI			LANK			LTIP			LTOE			LMT1			LMT5			LHEE			RKNE			RTHI			RANK			RTIP			RTOE			RMT1			RMT5			RHEE			RPSI			
		X1	Y1	Z1	X2	Y2	Z2	X3	Y3	Z3	X4	Y4	Z4	X5	Y5	Z5	X6	Y6	Z6	X7	Y7	Z7	X8	Y8	Z8	X9	Y9	Z9	X10	Y10	Z10	X11	Y11	Z11	X12	Y12	Z12	X13	Y13	Z13	X14	Y14	Z14	X15	Y15	Z15	X16	Y16	Z16	X17	Y17	Z17	X18	Y18	Z18	X19	Y19	Z19	X20	Y20	Z20	X21	Y21	Z21	X22	Y22	Z22	X23	Y23	Z23	X24	Y24	Z24	X25	Y25	Z25	X26	Y26	Z26	X27	Y27	Z27	X28	Y28	Z28	X29	Y29	Z29	X30	Y30	Z30	X31	Y31	Z31	X32	Y32	Z32	X33	Y33	Z33	X34	Y34	Z34	X35	Y35	Z35	X36	Y36	Z36	X37	Y37	Z37	X38	Y38	Z38	X39	Y39	Z39	X40	Y40	Z40	X41	Y41	Z41	X42	Y42	Z42	X43	Y43	Z43	X44	Y44	Z44	X45	Y45	Z45	X46	Y46	Z46	X47	Y47	Z47	X48	Y48	Z48	X49	Y49	Z49	X50	Y50	Z50	X51	Y51	Z51	X52	Y52	Z52	X53	Y53	Z53	

126	1.25	-1387.204833984375	1027.566040039062	248.1185607910156	-1379.355834960938	1084.373291015625	327.2864379882812	-1128.130249023438	1286.249145507812	332.7785034179688	-1397.587890625	1219.35986328125	320.8255615234375	-1338.034301757812	1486.646240234375	322.22412109375	-1158.106201171875	1400.930786132812	331.3098754882812	-1402.165771484375	1346.851684570312	392.7411499023438	-1355.048706054688	1449.526733398438	219.5874176025391	-1248.478637695312	1455.309692382812	151.4352722167969	-1259.599853515625	1328.502563476562	72.20687866210938	-1237.34521484375	1112.835327148438	54.59708023071289	-1307.601440429688	1098.739990234375	134.0042877197266	-1156.151245117188	871.3133544921875	123.1420669555664	-1209.300659179688	861.4188232421875	58.75426483154297	-1217.545043945312	1003.635131835938	48.21677017211914	-1152.616455078125	684.638916015625	142.1836395263672	-1178.58984375	780.7197875976562	65.36775970458984	-1134.275512695312	788.6870727539062	120.4127883911133	-1281.7548828125	1447.904541015625	500.4460754394531	-1294.39404296875	1376.912719726562	560.7297973632812	-1320.934936523438	1111.723388671875	585.0115356445312	-1297.734741210938	1090.9921875	488.7062683105469	-1171.033447265625	862.7835693359375	551.2664184570312	-1243.296020507812	845.9375610351562	598.8154907226562	-1306.962524414062	1032.015502929688	591.756591796875	-1165.539916992188	676.786865234375	528.8882446289062	-1144.463134765625	763.2606811523438	550.7291870117188	-1202.43994140625	758.5665893554688	602.5516357421875	-1297.529052734375	1656.878662109375	407.9293212890625	-1128.02392578125	1704.141845703125	271.8141784667969	-1130.441650390625	1697.007690429688	397.4375	-1303.394897460938	1672.173095703125	270.5286560058594	-1284.126708984375	964.2376098632812	156.9365386962891	-1310.127685546875	961.7938842773438	498.7596435546875	-1186.353149414062	979.848388671875	476.4096374511719	-1170.0390625	973.8775024414062	206.9803314208984	-1213.272705078125	501.3630065917969	206.0588531494141	-1244.431518554688	641.7750244140625	170.0812225341797	-1353.46533203125	55.26752471923828	183.5543365478516	-1290.271484375	264.3839111328125	181.5867156982422	-1147.320190429688	46.85449600219727	189.6256408691406	-1197.601806640625	44.13240432739258	242.9772491455078	-1250.461669921875	47.05566787719727	145.2438507080078	-1407.621337890625	49.66537094116211	258.7638549804688	-1219.49755859375	517.324951171875	475.3042907714844	-1223.904052734375	788.23974609375	506.5884704589844	-1354.0771484375	46.10876083374023	471.0431213378906	-1247.297119140625	393.4525756835938	481.9238586425781	-1136.181884765625	47.55298233032227	450.8869934082031	-1192.830688476562	49.64381790161133	405.6887817382812	-1232.89794921875	51.79502105712891	495.4505004882812	-1396.291015625	47.58625793457031	409.8391418457031	-1378.608154296875	1033.681396484375	422.8839721679688	
127	1.26	-1386.444458007812	1027.637329101562	248.9199371337891	-1378.656860351562	1084.427368164062	328.0536499023438	-1127.284423828125	1286.12060546875	333.7207641601562	-1396.70947265625	1219.36474609375	321.4590148925781	-1337.04736328125	1486.56884765625	323.0562438964844	-1157.247192382812	1400.817626953125	332.3046569824219	-1401.345703125	1346.808349609375	393.3783569335938	-1353.998779296875	1449.568725585938	220.3584442138672	-1247.345703125	1455.340942382812	152.3131256103516	-1258.462768554688	1328.5537109375	73.03479766845703	-1236.25244140625	1112.855712890625	55.48319244384766	-1306.644897460938	1098.817260742188	134.7956085205078	-1155.167236328125	871.3945922851562	124.3771896362305	-1208.2255859375	861.4308471679688	59.92290878295898	-1216.470825195312	1003.635620117188	49.22345352172852	-1151.1416015625	684.6434936523438	143.9503326416016	-1177.521240234375	780.750244140625	66.67237091064453	-1133.302856445312	788.8180541992188	121.7877655029297	-1281.02978515625	1447.778564453125	501.28662109375	-1293.850219726562	1376.80859375	561.4995727539062	-1320.821899414062	1111.607055664062	585.5964965820312	-1297.373657226562	1090.933715820312	489.3603820800781	-1170.7978515625	862.6668701171875	552.19970703125	-1243.295043945312	845.7911987304688	599.4574584960938	-1306.811279296875	1031.8642578125	592.307861328125	-1165.008666992188	676.7618408203125	529.6083374023438	-1144.173950195312	763.241943359375	551.6590576171875	-1202.300903320312	758.4072875976562	603.2952880859375	-1296.333862304688	1656.872802734375	408.9786376953125	-1126.949462890625	1704.013061523438	272.6760864257812	-1129.265747070312	1696.930419921875	398.3316345214844	-1302.36572265625	1672.150756835938	271.6170349121094	-1283.358520507812	964.2627563476562	157.7404022216797	-1309.473266601562	961.70849609375	499.5954895019531	-1185.687622070312	979.72705078125	477.2423095703125	-1169.322875976562	973.7982177734375	207.7913360595703	-1213.362670898438	501.3533325195312	206.4417877197266	-1244.440063476562	641.8936767578125	170.51416015625	-1353.515747070312	55.26233291625977	183.5803680419922	-1290.374633789062	264.4474182128906	181.7866668701172	-1147.339233398438	46.87111663818359	189.6494903564453	-1197.61767578125	44.12502288818359	242.9852142333984	-1250.474853515625	47.07140350341797	145.2497406005859	-1407.619506835938	49.63303756713867	258.7425537109375	-1218.795776367188	517.162353515625	475.7028503417969	-1223.106201171875	788.045166015625	507.1394958496094	-1354.145263671875	46.06555938720703	471.05517578125	-1246.722534179688	393.2638549804688	482.2257080078125	-1136.376586914062	48.16151809692383	450.678955078125	-1193.016235351562	49.81863021850586	405.5782165527344	-1233.072143554688	51.98918151855469	495.3494262695312	-1396.352783203125	47.53223037719727	409.8676452636719	-1377.923461914062	1033.57275390625	423.6610107421875	
128	1.27	-1385.617919921875	1027.720947265625	249.7795104980469	-1377.890747070312	1084.488159179688	328.879638671875	-1126.375366210938	1285.988403320312	334.7397155761719	-1395.749267578125	1219.366333007812	322.1312255859375	-1335.99951171875	1486.50634765625	323.9290161132812	-1156.331665039062	1400.718383789062	333.3666687011719	-1400.4853515625	1346.765625	394.0718688964844	-1352.880493164062	1449.610229492188	221.1710357666016	-1246.126831054688	1455.367919921875	153.2476501464844	-1257.235229492188	1328.599609375	73.91690826416016	-1235.088989257812	1112.878784179688	56.42048645019531	-1305.613525390625	1098.898193359375	135.6380462646484	-1154.1279296875	871.474853515625	125.6547775268555	-1207.09521484375	861.4511108398438	61.12764358520508	-1215.337158203125	1003.637451171875	50.27919769287109	-1149.7548828125	684.6649780273438	145.6791229248047	-1176.405395507812	780.7791137695312	68.01019287109375	-1132.27734375	788.9287719726562	123.1951141357422	-1280.27392578125	1447.656860351562	502.1796264648438	-1293.275146484375	1376.721923828125	562.3411254882812	-1320.689819335938	1111.5283203125	586.2296752929688	-1297.01025390625	1090.895629882812	490.1145629882812	-1170.547485351562	862.5557250976562	553.2042236328125	-1243.276611328125	845.6597290039062	600.18017578125	-1306.642944335938	1031.738403320312	592.9309692382812	-1164.530029296875	676.7241821289062	530.4002685546875	-1143.861450195312	763.2101440429688	552.6630859375	-1202.132446289062	758.2423095703125	604.0932006835938	-1295.070556640625	1656.868408203125	410.1049194335938	-1125.8310546875	1703.881469726562	273.5783996582031	-1128.011474609375	1696.849243164062	399.2601623535156	-1301.285522460938	1672.11474609375	272.7753601074219	-1282.521118164062	964.2875366210938	158.6110992431641	-1308.756958007812	961.61083984375	500.4865112304688	-1185.000366210938	979.59619140625	478.1529846191406	-1168.538330078125	973.7140502929688	208.6707000732422	-1213.45703125	501.3480834960938	206.8430023193359	-1244.400390625	642.0108642578125	170.9940795898438	-1353.568725585938	55.25757217407227	183.6049499511719	-1290.494873046875	264.5260925292969	181.9880981445312	-1147.365356445312	46.89082717895508	189.6695404052734	-1197.63671875	44.11991119384766	242.9906158447266	-1250.48974609375	47.08531188964844	145.2511291503906	-1407.619140625	49.60261917114258	258.7231140136719	-1218.130737304688	516.9920654296875	476.1507263183594	-1222.257080078125	787.8223266601562	507.7191162109375	-1354.220092773438	46.00994873046875	471.0848693847656	-1246.192260742188	393.0630493164062	482.5668640136719	-1136.571533203125	48.77498245239258	450.4703369140625	-1193.20849609375	50.00482177734375	405.4615478515625	-1233.220458984375	52.17456817626953	495.2550048828125	-1396.419555664062	47.48159408569336	409.9016418457031	-1377.170776367188	1033.475952148438	424.4848022460938	
129	1.28	-1384.719116210938	1027.81689453125	250.6992645263672	-1377.056884765625	1084.552734375	329.7652282714844	-1125.401000976562	1285.853637695312	335.8394165039062	-1394.705322265625	1219.362426757812	322.8466491699219	-1334.895629882812	1486.459838867188	324.8412170410156	-1155.35498046875	1400.6328125	334.4957580566406	-1399.584838867188	1346.726928710938	394.8257446289062	-1351.690551757812	1449.64892578125	222.0262756347656	-1244.821411132812	1455.3896484375	154.2406158447266	-1255.914794921875	1328.6396484375	74.85556030273438	-1233.862060546875	1112.903076171875	57.4085807800293	-1304.5107421875	1098.982299804688	136.5312805175781	-1153.033569335938	871.554443359375	126.9721069335938	-1205.909912109375	861.4752807617188	62.3676872253418	-1214.14697265625	1003.640319824219	51.38113403320312	-1148.456298828125	684.7050170898438	147.3630218505859	-1175.23974609375	780.80517578125	69.38021087646484	-1131.186157226562	789.0186157226562	124.6281204223633	-1279.488525390625	1447.538818359375	503.127685546875	-1292.6708984375	1376.64794921875	563.2556762695312	-1320.528564453125	1111.487060546875	586.919677734375	-1296.673706054688	1090.88134765625	490.9746398925781	-1170.270385742188	862.4539184570312	554.2720336914062	-1243.23291015625	845.5394287109375	600.984619140625	-1306.45849609375	1031.640502929688	593.6372680664062	-1164.099731445312	676.6637573242188	531.280517578125	-1143.525024414062	763.1580200195312	553.7403564453125	-1201.95361328125	758.0791625976562	604.94580078125	-1293.736083984375	1656.867065429688	411.3148498535156	-1124.669921875	1703.74609375	274.5201110839844	-1126.674682617188	1696.761474609375	400.2211303710938	-1300.15478515625	1672.067260742188	274.0086975097656	-1281.614990234375	964.3125610351562	159.5486297607422	-1307.974975585938	961.5126953125	501.4388732910156	-1184.27880859375	979.457275390625	479.1396484375	-1167.675903320312	973.625	209.6233062744141	-1213.530151367188	501.3444519042969	207.2675323486328	-1244.284301757812	642.1162109375	171.52197265625	-1353.61962890625	55.25503158569336	183.622314453125	-1290.62841796875	264.6217956542969	182.1859741210938	-1147.408447265625	46.91816711425781	189.6787261962891	-1197.658935546875	44.11790084838867	242.9922180175781	-1250.507690429688	47.09587478637695	145.2459564208984	-1407.620971679688	49.57429885864258	258.7059326171875	-1217.501953125	516.816162109375	476.6407165527344	-1221.375732421875	787.5783081054688	508.3483276367188	-1354.304321289062	45.94294357299805	471.1336669921875	-1245.717407226562	392.8510437011719	482.942138671875	-1136.766235351562	49.373046875	450.2577514648438	-1193.404418945312	50.19510269165039	405.3398132324219	-1233.3408203125	52.34977340698242	495.1667785644531	-1396.492065429688	47.43458557128906	409.9419250488281	-1376.341430664062	1033.3974609375	425.3656311035156	
